<?xml version="1.0" encoding="utf-8"?>
<!-- Generator: Adobe Illustrator 21.0.0, SVG Export Plug-In . SVG Version: 6.00 Build 0)  -->
<svg version="1.1" xmlns="http://www.w3.org/2000/svg" xmlns:xlink="http://www.w3.org/1999/xlink" x="0px" y="0px"
	 viewBox="0 0 256 256" style="enable-background:new 0 0 256 256;" xml:space="preserve">
<style type="text/css">
	.st0{fill:#F5F0DC;}
	.st1{display:none;}
	.st2{display:inline;}
	.st3{fill:none;stroke:#00FFFF;stroke-miterlimit:10;}
</style>
<g id="Layer_1">
	<g>
		<g>
			<path class="st0" d="M98.3,83.6c-13.4,9.9-22.6,25.3-24.3,42.7h32.2c-6.8-7.1-11.1-16.7-11.1-27.3C95.1,93.5,96.3,88.3,98.3,83.6
				z"/>
			<path class="st0" d="M161.7,158.9v-31.7c-5.6,5.4-12.8,9.2-20.7,10.5C143.1,148.2,151.3,156.6,161.7,158.9z"/>
			<path class="st0" d="M140.4,165.8c0,13,9.1,23.9,21.3,26.6v-21.3c-8.2-1.3-15.6-5.1-21.3-10.6V165.8z"/>
			<path class="st0" d="M128.4,159v-20.7h-20.7C110,148.6,118.1,156.7,128.4,159z"/>
			<path class="st0" d="M128,0.9C57.8,0.9,0.9,57.8,0.9,128S57.8,255.1,128,255.1S255.1,198.2,255.1,128S198.2,0.9,128,0.9z
				 M173.7,205.1h-6c-19.8,0-36.2-14.7-38.9-33.8c-17.1-2.5-30.7-15.9-33.2-33H61.7v-6c0-40.1,32.6-72.7,72.7-72.7l0,0
				c21.6,0,39.2,17.7,39.3,39.3h0V205.1z"/>
		</g>
		<path class="st0" d="M134.4,71.7c-15,0-27.3,12.2-27.3,27.3c0,15,12.2,27.3,27.3,27.3c15,0,27.3-12.2,27.3-27.3
			C161.7,84,149.5,71.7,134.4,71.7z M134.4,113.2c-7.8,0-14.2-6.4-14.2-14.2c0-0.5,0-1,0.1-1.4c0.1,0,0.2,0,0.2,0
			c7.4,0,13.4-5.6,14.1-12.8c7.7,0.1,13.9,6.4,13.9,14.2C148.6,106.9,142.3,113.2,134.4,113.2z"/>
	</g>
</g>
<g id="Layer_2" class="st1">
	<g class="st2">
		<rect x="97.2" y="71.7" class="st3" width="115.8" height="82.3"/>
		<line class="st3" x1="97.2" y1="140.3" x2="213" y2="140.3"/>
		<line class="st3" x1="97.2" y1="126.6" x2="213" y2="126.6"/>
		<line class="st3" x1="97.2" y1="112.9" x2="213" y2="112.9"/>
		<line class="st3" x1="97.2" y1="99.2" x2="213" y2="99.2"/>
		<line class="st3" x1="97.2" y1="85.4" x2="213" y2="85.4"/>
		<line class="st3" x1="193.7" y1="71.7" x2="193.7" y2="154"/>
		<line class="st3" x1="174.4" y1="71.7" x2="174.4" y2="154"/>
		<line class="st3" x1="155.1" y1="71.7" x2="155.1" y2="154"/>
		<line class="st3" x1="135.8" y1="71.7" x2="135.8" y2="154"/>
		<line class="st3" x1="116.5" y1="71.7" x2="116.5" y2="154"/>
	</g>
</g>
</svg>
